name GIL08_free1EmgEnv.mot
datacolumns 51
datarows 11
range 0.66759259 0.67685181
endheader
                time	   rect_fem_l_emgRec	   rect_fem_l_emgEnv	   rect_fem_l_emgAve	   rect_fem_l_emgSDp	   rect_fem_l_emgSDm	   rect_fem_r_emgRec	   rect_fem_r_emgEnv	   rect_fem_r_emgAve	   rect_fem_r_emgSDp	   rect_fem_r_emgSDm	   med_hams_l_emgRec	   med_hams_l_emgEnv	   med_hams_l_emgAve	   med_hams_l_emgSDp	   med_hams_l_emgSDm	   med_hams_r_emgRec	   med_hams_r_emgEnv	   med_hams_r_emgAve	   med_hams_r_emgSDp	   med_hams_r_emgSDm	   lat_hams_l_emgRec	   lat_hams_l_emgEnv	   lat_hams_l_emgAve	   lat_hams_l_emgSDp	   lat_hams_l_emgSDm	   lat_hams_r_emgRec	   lat_hams_r_emgEnv	   lat_hams_r_emgAve	   lat_hams_r_emgSDp	   lat_hams_r_emgSDm	    tib_ant_l_emgRec	    tib_ant_l_emgEnv	    tib_ant_l_emgAve	    tib_ant_l_emgSDp	    tib_ant_l_emgSDm	    tib_ant_r_emgRec	    tib_ant_r_emgEnv	    tib_ant_r_emgAve	    tib_ant_r_emgSDp	    tib_ant_r_emgSDm	    gas_sol_l_emgRec	    gas_sol_l_emgEnv	    gas_sol_l_emgAve	    gas_sol_l_emgSDp	    gas_sol_l_emgSDm	    gas_sol_r_emgRec	    gas_sol_r_emgEnv	    gas_sol_r_emgAve	    gas_sol_r_emgSDp	    gas_sol_r_emgSDm	
          0.66759259	          0.15051253	          0.22835465	          0.22707352	          0.29438088	          0.15976616	          0.20292684	          0.74164279	          0.56624037	          0.70585166	          0.42662908	          0.01616565	          0.24510859	          0.34362972	          0.47769898	          0.20956045	          0.01838953	          0.20950612	          0.25609308	          0.31668573	          0.19550044	          0.04343751	          0.16271081	          0.13484058	          0.21039791	          0.05928324	          0.06860184	          0.32334611	          0.26231116	          0.34758833	          0.17703399	          0.03341300	          0.15667566	          0.27957091	          0.33855667	          0.22058515	          0.05174365	          0.40373773	          0.45304421	          0.61459638	          0.29149203	          0.10618431	          0.09581289	          0.18420447	          0.24401697	          0.12439198	          0.00479988	          0.19008431	          0.17129487	          0.23852363	          0.10406610	
          0.66851848	          0.09394577	          0.22321586	          0.22414951	          0.29135913	          0.15693989	          0.17308416	          0.72888481	          0.56673735	          0.70699900	          0.42647570	          0.01771663	          0.24119931	          0.33999035	          0.47320901	          0.20677169	          0.03329073	          0.20632550	          0.25387165	          0.31344774	          0.19429556	          0.00308526	          0.15750053	          0.13285065	          0.20772491	          0.05797638	          0.05124631	          0.31678886	          0.26185849	          0.34707843	          0.17663856	          0.05629905	          0.16135737	          0.28226581	          0.34235072	          0.22218091	          0.09167273	          0.39426071	          0.45143452	          0.61172059	          0.29114845	          0.09325736	          0.09577673	          0.18392247	          0.24324741	          0.12459753	          0.03408966	          0.18955582	          0.17051332	          0.23723699	          0.10378964	
          0.66944444	          0.06562537	          0.21818033	          0.22123075	          0.28836147	          0.15410002	          0.07048600	          0.71620854	          0.56719917	          0.70811844	          0.42627990	          0.00968964	          0.23737570	          0.33627334	          0.46862102	          0.20392567	          0.13848059	          0.20323796	          0.25165370	          0.31023084	          0.19307657	          0.03027052	          0.15231265	          0.13083360	          0.20501176	          0.05665544	          0.06522379	          0.31017512	          0.26140627	          0.34658653	          0.17622601	          0.05349900	          0.16633997	          0.28500468	          0.34619685	          0.22381250	          0.11211888	          0.38490991	          0.44982320	          0.60885967	          0.29078673	          0.08796329	          0.09576616	          0.18364961	          0.24249458	          0.12480465	          0.05833368	          0.18895316	          0.16975614	          0.23600754	          0.10350475	
          0.67037034	          0.16503656	          0.21324912	          0.21831845	          0.28538859	          0.15124831	          0.03511435	          0.70364005	          0.56762588	          0.70920986	          0.42604190	          0.01355844	          0.23364508	          0.33248183	          0.46393879	          0.20102488	          0.24142530	          0.20023850	          0.24943960	          0.30703562	          0.19184358	          0.04499829	          0.14715702	          0.12879123	          0.20226075	          0.05532171	          0.09055429	          0.30351310	          0.26095474	          0.34611293	          0.17579655	          0.00432416	          0.17161884	          0.28778726	          0.35009372	          0.22548080	          0.13339524	          0.37569636	          0.44821063	          0.60601446	          0.29040679	          0.09433249	          0.09578140	          0.18338597	          0.24175858	          0.12501336	          0.06629220	          0.18827520	          0.16902372	          0.23483584	          0.10321160	
          0.67129630	          0.17616868	          0.20842305	          0.21541303	          0.28244030	          0.14838576	          0.00539740	          0.69120396	          0.56801736	          0.71027325	          0.42576148	          0.02413975	          0.23001425	          0.32861817	          0.45916519	          0.19807115	          0.12417556	          0.19732199	          0.24722928	          0.30386198	          0.19059657	          0.00330822	          0.14204329	          0.12672478	          0.19947356	          0.05397600	          0.09424441	          0.29681088	          0.26050377	          0.34565753	          0.17535000	          0.04115947	          0.17718863	          0.29061395	          0.35404087	          0.22718703	          0.14402667	          0.36663076	          0.44659704	          0.60318522	          0.29000886	          0.06587210	          0.09582270	          0.18313140	          0.24103913	          0.12522366	          0.06005038	          0.18752095	          0.16831619	          0.23372208	          0.10291029	
          0.67222220	          0.18955548	          0.20370263	          0.21251576	          0.27951726	          0.14551425	          0.06619828	          0.67892336	          0.56837356	          0.71130848	          0.42543864	          0.02769454	          0.22648947	          0.32468590	          0.45430443	          0.19506738	          0.15573361	          0.19448318	          0.24502318	          0.30071057	          0.18933578	          0.01933182	          0.13698078	          0.12463617	          0.19665263	          0.05261970	          0.05296422	          0.29007638	          0.26005340	          0.34522043	          0.17488636	          0.00714170	          0.18304329	          0.29348436	          0.35803672	          0.22893200	          0.07713777	          0.35772350	          0.44498289	          0.60037293	          0.28959285	          0.00491666	          0.09589040	          0.18288590	          0.24033625	          0.12543555	          0.06871559	          0.18668961	          0.16763386	          0.23266677	          0.10260095	
          0.67314816	          0.16628013	          0.19908815	          0.20962706	          0.27661929	          0.14263484	          0.01333386	          0.66681980	          0.56869471	          0.71231587	          0.42507355	          0.02080813	          0.22307648	          0.32068744	          0.44935948	          0.19201541	          0.26095758	          0.19171674	          0.24282119	          0.29758125	          0.18806113	          0.02160344	          0.13197854	          0.12252671	          0.19379969	          0.05125374	          0.00305113	          0.28331733	          0.25960362	          0.34480166	          0.17440557	          0.01412646	          0.18917606	          0.29639897	          0.36208089	          0.23071705	          0.04424737	          0.34898464	          0.44336826	          0.59757771	          0.28915881	          0.04486712	          0.09598486	          0.18264946	          0.23964980	          0.12564913	          0.11685430	          0.18578056	          0.16697693	          0.23167013	          0.10228373	
          0.67407405	          0.09243099	          0.19457969	          0.20674816	          0.27374693	          0.13974939	          0.12607861	          0.65491326	          0.56898057	          0.71329501	          0.42466614	          0.03118335	          0.21978046	          0.31662634	          0.44433466	          0.18891802	          0.19749635	          0.18901731	          0.24062365	          0.29447458	          0.18677272	          0.00704223	          0.12704526	          0.12039841	          0.19091735	          0.04987947	          0.06118255	          0.27654132	          0.25915462	          0.34440143	          0.17390781	          0.03712531	          0.19557949	          0.29935744	          0.36617178	          0.23254311	          0.09538375	          0.34042387	          0.44175375	          0.59480055	          0.28870694	          0.07192289	          0.09610650	          0.18242209	          0.23897975	          0.12586442	          0.14737796	          0.18479338	          0.16634567	          0.23073257	          0.10195877	
          0.67500001	          0.00227057	          0.19017712	          0.20387955	          0.27090005	          0.13685905	          0.20676323	          0.64322213	          0.56923127	          0.71424618	          0.42421636	          0.10337252	          0.21660604	          0.31250525	          0.43923314	          0.18577735	          0.14606150	          0.18637954	          0.23843050	          0.29139041	          0.18547059	          0.00779701	          0.12218930	          0.11825266	          0.18800743	          0.04849790	          0.12671385	          0.26975576	          0.25870618	          0.34401958	          0.17339279	          0.09225442	          0.20224546	          0.30236027	          0.37030900	          0.23441154	          0.01038183	          0.33205053	          0.44013950	          0.59204179	          0.28823721	          0.07553722	          0.09625581	          0.18220377	          0.23832597	          0.12608157	          0.10101592	          0.18372787	          0.16574021	          0.22985423	          0.10162618	
          0.67592591	          0.11523545	          0.18588013	          0.20102240	          0.26807909	          0.13396571	          0.21729062	          0.63176321	          0.56944686	          0.71516930	          0.42372443	          0.11306910	          0.21355729	          0.30832788	          0.43405943	          0.18259634	          0.07779456	          0.18379808	          0.23624220	          0.28832942	          0.18415499	          0.01113882	          0.11741863	          0.11609153	          0.18507260	          0.04711047	          0.13137037	          0.26296788	          0.25825852	          0.34365632	          0.17286073	          0.08535092	          0.20916520	          0.30540702	          0.37449082	          0.23632322	          0.11771122	          0.32387358	          0.43852592	          0.58930211	          0.28774972	          0.07899588	          0.09643333	          0.18199439	          0.23768833	          0.12630046	          0.00751772	          0.18258407	          0.16516088	          0.22903559	          0.10128617	
          0.67685181	          0.15077904	          0.18168823	          0.19817746	          0.26528411	          0.13107080	          0.16019272	          0.62055171	          0.56962746	          0.71606451	          0.42319041	          0.03838448	          0.21063774	          0.30409741	          0.42881733	          0.17937750	          0.01198877	          0.18126768	          0.23405869	          0.28529154	          0.18282584	          0.02217785	          0.11274084	          0.11391667	          0.18211501	          0.04571832	          0.10619386	          0.25618474	          0.25781158	          0.34331164	          0.17231151	          0.06204271	          0.21632933	          0.30849797	          0.37871645	          0.23827948	          0.17601774	          0.31590156	          0.43691325	          0.58658198	          0.28724453	          0.09283368	          0.09663963	          0.18179396	          0.23706669	          0.12652123	          0.06442650	          0.18136225	          0.16460784	          0.22827683	          0.10093885	
